:SAMPLES-PER-SECOND 30
:FULLY-SPECIFIED
:DEGREES
129
root  5.954888862 36.6580002 8.248155699 -3.750976562 -34.50900269 -2.382995605
lowerback  12.07120037 -3.629390001 -7.957260132
upperback  2.606920004 -5.77215004 1.644850016
thorax  -3.031769991 -2.846509933 7.006199837
lowerneck  -11.77250004 12.57050037 -5.23156023
upperneck  16.26239967 17.69039917 2.209660053
head  6.205500126 8.390399933 2.94253993
lclavicle  0 -9.442270133e-015 7.951389973e-016
lhumerus  32.84830093 6.601399899 49.63199997
lradius  -1.977103359e-031 -2.925731763e-031 55.95059967
lwrist  -1.412450015e-030 1.765562519e-031 14.88850021
lhand  -1.496451383e-031 -27.76390076 20.11240005
lfingers  90 7.125020027 -90
lthumb  89.89689403 5.08795885 91.16245106
rclavicle  0 -9.442270133e-015 7.951389973e-016
rhumerus  -36.60380173 25.32699966 -70.72499847
rradius  -2.084955511e-031 2.84987799e-031 126.189003
rwrist  0 -0 -15.89570045
rhand  -7.920061211e-032 -33.2840004 9.303460121
rfingers  -90 -7.125020027 -90
rthumb  -92.93752616 -24.25625642 -97.11982154
rfemur  3.075910091 22.01250076 12.70670033
rtibia  -0 0 58.6568985
rfoot  -4.421863929e-032 -3.437890053 5.208199978
rtoes  5.373923086 19.29304026 -105.8922705
lfemur  -29.11870003 -8.934800148 6.526080132
ltibia  -0 0 48.49300003
lfoot  -0 -8.424220085 -9.092949867
ltoes  -4.250644065 -19.5611806 -102.515957
130
root  5.803355645 36.6933327 8.394800021 -2.896972656 -31.20500183 -3.395996094
lowerback  12.03180027 -3.799839973 -8.176150322
upperback  2.421139956 -6.02974987 1.455320001
thorax  -3.159729958 -2.95637989 6.962560177
lowerneck  -12.26130009 11.86170006 -6.021369934
upperneck  16.29840088 16.66060066 3.665159941
head  6.132999897 7.978919983 3.444010019
lclavicle  0 -9.442270133e-015 7.951389973e-016
lhumerus  33.84820175 2.57998991 52.24700165
lradius  -1.734881298e-031 -3.075553758e-031 60.57320023
lwrist  -7.062250077e-031 1.765562519e-031 21.87179947
lhand  -1.496451383e-031 -27.76390076 20.11240005
lfingers  90 7.125020027 -90
lthumb  89.89689403 5.08795885 91.16245106
rclavicle  0 -9.442270133e-015 7.951389973e-016
rhumerus  -36.69020081 24.3362999 -70.40750122
rradius  -2.12025748e-031 2.823712495e-031 126.9020004
rwrist  7.062250077e-031 1.765562519e-031 -14.9538002
rhand  -7.920061211e-032 -33.2840004 9.303460121
rfingers  -90 -7.125020027 -90
rthumb  -92.93752616 -24.25625642 -97.11982154
rfemur  4.637269974 21.73040009 14.82610035
rtibia  -0 0 57.0788002
rfoot  -0 -1.178580046 7.229400158
rtoes  5.373923086 19.29304026 -105.8922705
lfemur  -31.14550018 -8.413299561 7.136569977
ltibia  -0 0 48.67029953
lfoot  -0 -6.766449928 -11.17430019
ltoes  -4.250644065 -19.5611806 -102.515957
131
root  5.665555714 36.75222322 8.539444631 -1.908996582 -28.2480011 -4.546020508
lowerback  11.84469986 -3.687079906 -7.929170132
upperback  2.320489883 -5.84280014 1.186319947
thorax  -3.25116992 -2.853460073 6.507090092
lowerneck  -12.39309978 10.93309975 -6.721600056
upperneck  15.76019955 15.3203001 4.938829899
head  5.884309769 7.427420139 3.81765008
lclavicle  0 -9.442270133e-015 7.951389973e-016
lhumerus  35.18090057 -2.173700094 54.69739914
lradius  -1.509940067e-031 -3.19200956e-031 64.68409729
lwrist  -7.062250077e-031 -4.413906298e-032 24.71949959
lhand  -1.496451383e-031 -27.76390076 20.11240005
lfingers  90 7.125020027 -90
lthumb  89.89689403 5.08795885 91.16245106
rclavicle  0 -9.442270133e-015 7.951389973e-016
rhumerus  -36.3667984 22.78350067 -69.69499969
rradius  -2.177278201e-031 2.779982675e-031 128.0679932
rwrist  7.062250077e-031 -1.765562519e-031 -14.46640015
rhand  -7.920061211e-032 -33.2840004 9.303460121
rfingers  -90 -7.125020027 -90
rthumb  -92.93752616 -24.25625642 -97.11982154
rfemur  5.934899807 21.36370087 17.08819962
rtibia  -0 0 55.44499969
rfoot  -0 0.3343690038 8.804320335
rtoes  5.373923086 19.29304026 -105.8922705
lfemur  -33.28419876 -7.691390038 7.830239773
ltibia  -0 0 49.17589951
lfoot  -0 -5.029220104 -12.64840031
ltoes  -4.250644065 -19.5611806 -102.515957
132
root  5.54239994 36.84333441 8.687244626 -1.00402832 -25.57200623 -5.525024414
lowerback  11.62440014 -3.227080107 -7.342700005
upperback  2.239629984 -5.164989948 0.6097279787
thorax  -3.436779976 -2.506390095 5.479899883
lowerneck  -12.1480999 9.777279854 -7.123260021
upperneck  14.88099957 13.57890034 6.393640041
head  5.529119968 6.714600086 4.155930042
lclavicle  0 -9.442270133e-015 7.951389973e-016
lhumerus  36.73469925 -7.709280014 56.72029877
lradius  -1.342484029e-031 -3.265973158e-031 67.65480042
lwrist  0 -0 21.62630081
lhand  -1.496451383e-031 -27.76390076 20.11240005
lfingers  90 7.125020027 -90
lthumb  89.89689403 5.08795885 91.16245106
rclavicle  0 -9.442270133e-015 7.951389973e-016
rhumerus  -35.92689896 20.51230049 -68.82759857
rradius  -2.252058565e-031 2.719756654e-031 129.6260071
rwrist  7.062250077e-031 -0 -14.68949986
rhand  -7.920061211e-032 -33.2840004 9.303460121
rfingers  -90 -7.125020027 -90
rthumb  -92.93752616 -24.25625642 -97.11982154
rfemur  6.956960201 21.01819992 19.14439964
rtibia  -0 0 53.83660126
rfoot  -0 1.381060004 9.716099739
rtoes  5.373923086 19.29304026 -105.8922705
lfemur  -35.45040131 -6.788799763 8.210269928
ltibia  -0 0 49.9618988
lfoot  -0 -3.37293005 -13.47640038
ltoes  -4.250644065 -19.5611806 -102.515957
133
root  5.439755673 36.88377921 8.813689074 -0.25 -22.94700623 -6.164001465
lowerback  11.23379993 -2.644129992 -6.815780163
upperback  2.322679996 -4.325260162 -0.167907998
thorax  -3.35781002 -2.098570108 4.238389969
lowerneck  -11.82320023 8.529660225 -7.414519787
upperneck  13.8125 11.70170021 7.975999832
head  5.148789883 5.937009811 4.516829967
lclavicle  0 -9.442270133e-015 7.951389973e-016
lhumerus  38.12469864 -13.65089989 57.75920105
lradius  -1.188439776e-031 -3.3251248e-031 70.33249664
lwrist  0 8.827812596e-032 17.29829979
lhand  -1.496451383e-031 -27.76390076 20.11240005
lfingers  90 7.125020027 -90
lthumb  89.89689403 5.08795885 91.16245106
rclavicle  0 -9.442270133e-015 7.951389973e-016
rhumerus  -34.76309967 18.14640045 -67.44809723
rradius  -2.329482989e-031 2.653743213e-031 131.2769928
rwrist  7.062250077e-031 -1.765562519e-031 -15.70460033
rhand  -7.920061211e-032 -33.2840004 9.303460121
rfingers  -90 -7.125020027 -90
rthumb  -92.93752616 -24.25625642 -97.11982154
rfemur  7.783510208 20.35140038 20.7390995
rtibia  -0 0 52.44200134
rfoot  -0 1.577909946 10.03409958
rtoes  5.373923086 19.29304026 -105.8922705
lfemur  -37.73220062 -6.351439953 8.427020073
ltibia  -0 0 50.78379822
lfoot  -0 -1.000049949 -14.21399975
ltoes  -4.250644065 -19.5611806 -102.515957
134
root  5.354533233 36.90688967 8.9011335 0.3109741211 -20.36799622 -6.510009766
lowerback  11.12849998 -1.953999996 -6.73800993
upperback  2.349479914 -3.414700031 -0.739166975
thorax  -3.421279907 -1.645760059 3.479449987
lowerneck  -11.46479988 7.27380991 -8.286589622
upperneck  13.09729958 9.89109993 9.882650375
head  4.858550072 5.162549973 5.104559898
lclavicle  0 -9.442270133e-015 7.951389973e-016
lhumerus  39.2364006 -19.56520081 58.11619949
lradius  -1.016458885e-031 -3.381664586e-031 73.27030182
lwrist  -1.412450015e-030 1.765562519e-031 14.57999992
lhand  -1.496451383e-031 -27.76390076 20.11240005
lfingers  90 7.125020027 -90
lthumb  89.89689403 5.08795885 91.16245106
rclavicle  0 -9.442270133e-015 7.951389973e-016
rhumerus  -32.69309998 16.10630035 -64.83679962
rradius  -2.397654606e-031 2.592314878e-031 132.7660065
rwrist  7.062250077e-031 8.827812596e-032 -17.28370094
rhand  -7.920061211e-032 -33.2840004 9.303460121
rfingers  -90 -7.125020027 -90
rthumb  -92.93752616 -24.25625642 -97.11982154
rfemur  8.510029793 19.41270065 21.97739983
rtibia  -0 0 51.34790039
rfoot  -0 1.06772995 9.862500191
rtoes  5.373923086 19.29304026 -105.8922705
lfemur  -39.99729919 -6.264070034 8.331680298
ltibia  -0 0 51.57239914
lfoot  -0 0.4658679962 -14.79459953
ltoes  -4.250644065 -19.5611806 -102.515957
135
root  5.286466794 36.96555491 8.991955584 0.7609863281 -17.80499268 -6.473022461
lowerback  11.04699993 -1.18039 -6.870059967
upperback  2.318490028 -2.425970078 -1.362890005
thorax  -3.53647995 -1.150949955 2.773030043
lowerneck  -10.85000038 6.060319901 -9.491230011
upperneck  12.62020016 8.126660347 12.21469975
head  4.611410141 4.402689934 5.905260086
lclavicle  0 -9.442270133e-015 7.951389973e-016
lhumerus  40.07970047 -25.45770073 58.14670181
lradius  -8.387180989e-032 -3.430072301e-031 76.25969696
lwrist  -1.412450015e-030 -0 14.05309963
lhand  -1.496451383e-031 -27.76390076 20.11240005
lfingers  90 7.125020027 -90
lthumb  89.89689403 5.08795885 91.16245106
rclavicle  0 -9.442270133e-015 7.951389973e-016
rhumerus  -30.0298996 13.9343996 -61.4679985
rradius  -2.452880918e-031 2.540121894e-031 133.9989929
rwrist  7.062250077e-031 -0 -18.94499969
rhand  -7.920061211e-032 -33.2840004 9.303460121
rfingers  -90 -7.125020027 -90
rthumb  -92.93752616 -24.25625642 -97.11982154
rfemur  8.857150078 18.12649918 22.66629982
rtibia  -0 0 50.64459991
rfoot  -0 0.2573809922 9.217499733
rtoes  5.373923086 19.29304026 -105.8922705
lfemur  -42.15620041 -6.653749943 7.856500149
ltibia  -0 0 52.19390106
lfoot  -0 1.822209954 -14.97869968
ltoes  -4.250644065 -19.5611806 -102.515957
